<svg clip-rule="evenodd" fill-rule="evenodd" height="1795" image-rendering="optimizeQuality" shape-rendering="geometricPrecision" text-rendering="geometricPrecision" viewBox="0 0 5687 1779.03" width="5737" xmlns="http://www.w3.org/2000/svg"><path d="m.45 1779.03h5686.55v-94.99h-5686.55z"/><path d="m4790.86 1131.53h896.14v-94.98h-896.14z" fill="#ff007f"/><path d="m3832.78 1131.53h896.14v-94.98h-896.14z" fill="#0ff"/><path d="m2874.69 1131.53h896.14v-94.98h-896.14z" fill="#0f0"/><path d="m1916.61 1131.53h896.14v-94.98h-896.14z" fill="#ff0"/><path d="m958.53 1131.53h896.14v-94.98h-896.14z" fill="#ff7f00"/><path d="m.45 1131.53h896.13v-94.98h-896.13z" fill="#f00"/><path d="m5191.44 115.63h82.59v755.73h-82.59v115.63h206.48v-986.99h-206.48z"/><path d="m5571.37 871.36h-140.41v115.63h256.04v-280.82h-115.63z"/><path d="m5430.96 115.63h140.41v115.63h115.63v-231.26h-256.04z"/><path d="m5430.96 532.73h173.44v-115.63h-173.44z"/><path d="m4666.97 123.89v284.95l123.89 123.89h148.67l61.94 61.94v214.74l-61.94 61.95h-128.02v115.63h189.96l123.89-123.89v-322.11l-123.89-123.89h-148.66l-61.95-61.95v-177.57l61.95-61.95h128.01v-115.63h-189.96z"/><path d="m4666.97 986.99h115.63v-280.82h-115.63z"/><path d="m5009.73 231.26h115.63v-231.26h-115.63z"/><path d="m4278.78 115.63h94.98v755.73h-94.98v115.63h313.86v-115.63h-94.99v-755.73h94.99v-115.63h-313.86z"/><path d="m3667.59 115.63h78.46v755.73h-78.46v115.63h202.35v-986.99h-202.35z"/><path d="m3902.98 115.63h115.63l61.95 61.95v177.57l-61.95 61.95h-115.63v115.63h177.58l123.89-123.89v-284.95l-123.89-123.89h-177.58z"/><path d="m4080.56 986.99h148.67v-115.63h-60.75l-87.92-305.6h-123.89z"/><path d="m3081.18 115.63h78.46v755.73h-78.46v115.63h280.82v-115.63h-78.47v-871.36h-202.35z"/><path d="m3316.57 115.63h115.63l61.94 61.95v177.57l-61.94 61.95h-115.63v115.63h177.58l123.88-123.89v-284.95l-123.89-123.89h-177.57z"/><path d="m2461.73 115.63h78.46v755.73h-78.46v115.63h202.35v-986.99h-202.35z"/><path d="m2697.12 115.63h115.63l61.94 61.95v177.57l-61.94 61.95h-115.63v115.63h177.57l123.89-123.89v-284.95l-123.89-123.89h-177.57z"/><path d="m2874.69 986.99h148.67v-115.63h-60.76l-87.91-305.6h-123.89z"/><path d="m1900.09 115.63h82.6v755.73h-82.6v115.63h206.49v-986.99h-206.49z"/><path d="m2280.02 871.36h-140.41v115.63h256.04v-280.82h-115.63z"/><path d="m2139.61 115.63h140.41v115.63h115.63v-231.26h-256.04z"/><path d="m2139.61 532.73h173.45v-115.63h-173.45z"/><path d="m1487.13 871.36h-107.37v115.63h338.63v-115.63h-107.37v-871.36h-123.89z"/><path d="m1243.48 264.3h115.63v-148.67h94.98v-115.63h-210.61z"/><path d="m1644.05 115.63h94.99v148.67h115.63v-264.3h-210.62z"/><path d="m562.08 115.63h82.59l379.93 871.36h173.45v-115.63h-82.59l-379.93-871.36h-173.45z"/><path d="m991.57 528.6 123.89 281.93v-694.9h82.59v-115.63h-206.48z"/><path d="m644.67 871.36h-82.59v115.63h206.48v-528.6l-123.89-281.68z"/><path d="m.45 115.63h82.59v755.73h-82.59v115.63h206.48v-986.99h-206.48z"/><path d="m380.38 871.36h-140.41v115.63h256.04v-280.82h-115.63z"/><path d="m239.97 115.63h140.41v115.63h115.63v-231.26h-256.04z"/><path d="m239.97 532.73h173.44v-115.63h-173.44z"/><g fill-rule="nonzero"><path d="m264.87 1438.13 40.16 22.43c-9.02 34.32-27.28 60.92-54.78 79.78-27.43 18.87-59.02 28.26-94.71 28.26-46.82 0-84.4-15.15-112.66-45.53-28.27-30.31-42.43-67.89-42.43-112.59 0-49.02 14.24-88.04 42.65-117.06 28.42-29.02 65.54-43.49 111.3-43.49 40.46 0 74.41 10.99 101.99 33.03v-28.03h40v99.1h-40c-8.87-20.08-22.58-35.68-41.07-46.67-18.56-10.99-38.03-16.52-58.41-16.52-30.84 0-56.15 11.14-75.92 33.34-19.78 22.2-29.63 50.23-29.63 84.18 0 34.85 10.61 63.26 31.75 85.31 21.21 22.05 46.29 33.11 75.31 33.11 23.87 0 45.54-7.65 65.08-23.03 19.55-15.31 33.34-37.2 41.37-65.62z"/><path d="m519.98 1407.83c0-44.86 14.62-82.36 43.94-112.59 29.25-30.23 67.36-45.31 114.41-45.31 47.43 0 86.15 15.08 116 45.31s44.78 68.04 44.78 113.5c0 46.29-15.15 84.55-45.54 114.71-30.38 30.08-69.02 45.15-115.92 45.15-29.85 0-57.28-7.12-82.36-21.44-25.08-14.24-43.87-34.17-56.44-59.7-12.58-25.54-18.87-52.13-18.87-79.63zm50.91.07c0 33.95 9.93 62.36 29.7 85.32 19.86 22.95 45.84 34.47 78.05 34.47 31.97 0 58.18-11.74 78.72-35.23 20.53-23.49 30.83-51.52 30.83-84.1 0-32.88-10.45-60.69-31.36-83.42-20.92-22.73-47.21-34.1-78.88-34.1-31.44 0-57.2 11.22-77.13 33.57-19.92 22.35-29.93 50.16-29.93 83.49z"/><path d="m1080.43 1524.96v-231.39h-37.28v-38.64h105.85l81.22 211.69 82.05-211.69h106.83v38.64h-37.27v231.39h37.27v38.64h-116.37v-38.64h36.82v-231.39l-106.45 273.22h-9.1l-105.39-273.22v231.39h34.1v38.64h-109.56v-38.64z"/><path d="m1648.22 1524.96v-231.39h-38.64v-38.64h110.39c32.36 0 56.68 2.27 72.82 6.9 16.13 4.54 29.62 14.92 40.53 31.13 10.84 16.22 16.29 35.31 16.29 57.28 0 17.66-3.56 33.42-10.76 47.36-7.2 14.02-16.06 24.32-26.67 30.99-10.6 6.59-22.5 11.06-35.76 13.41-13.26 2.27-33.26 3.41-60.08 3.41h-21.29v79.55h40v38.64h-125.47v-38.64zm46.83-116.83h26.67c30.3 0 51.37-4.32 63.03-12.96 11.75-8.63 17.58-23.86 17.58-45.76 0-13.86-3.1-25.38-9.32-34.55-6.21-9.17-13.94-15-23.11-17.5-9.16-2.5-24.47-3.79-45.99-3.79h-28.86z"/><path d="m2122.45 1293.57v154.49c0 24.02 1.21 40.53 3.63 49.7 2.43 9.25 8.57 17.05 18.34 23.49 9.7 6.44 22.28 9.62 37.66 9.62 18.33 0 32.35-2.8 42.12-8.33 9.78-5.53 16.22-13.03 19.4-22.43 3.18-9.39 4.77-25.99 4.77-49.85v-156.69h-35.91v-38.64h120.92v38.64h-38.64v161.38c0 21.75-.91 37.59-2.8 47.36-1.82 9.85-6.82 20.15-14.93 30.91-8.18 10.68-19.62 19.32-34.47 25.76-14.78 6.44-32.73 9.62-53.95 9.62-23.33 0-42.81-3.03-58.34-9.01-15.53-5.99-27.27-14.02-35.08-24.1-7.88-10-13.11-20.76-15.68-32.12-2.58-11.44-3.87-29.1-3.87-53.11v-156.69h-38.18v-38.64h121.83v38.64z"/><path d="m2616.98 1524.96v-231.39h-63.19v78.65h-38.64v-117.29h250.48v117.29h-38.64v-78.65h-63.19v231.39h40.01v38.64h-126.38v-38.64z"/><path d="m2993.01 1524.96v-231.39h-40.01v-38.64h256.85v92.74h-38.64v-54.1h-131.38v91.83h114.56v38.64h-114.56v100.92h131.38v-55.91h38.64v94.55h-256.85v-38.64z"/><path d="m3443.52 1524.96v-231.39h-42.28v-38.64h125.32c26.21 0 46.97 2.05 62.35 6.14 15.39 4.01 28.11 12.65 38.19 25.76 10.08 13.03 15.08 29.4 15.08 48.94 0 40.84-21.14 66.53-63.49 77.06l54.47 112.13h37.66v38.64h-67.06l-70-144.11h-43.42v105.47h39.55v38.64h-128.65v-38.64zm46.82-144.11h36.3c17.57 0 30.53-1.13 38.86-3.41 8.34-2.34 15.23-6.97 20.54-14.01 5.3-7.05 7.95-16.52 7.95-28.34 0-10.08-2.73-18.56-8.11-25.53s-11.97-11.37-19.92-13.19c-7.88-1.89-19.93-2.8-36.22-2.8h-39.4z"/><path d="m3855.84 1563.6v-111.83h38.64v27.35c18.56 33.57 42.81 50.39 72.74 50.39 15.3 0 28.18-4.7 38.72-14.02 10.53-9.32 15.83-21.59 15.83-36.75 0-14.69-4.32-25.23-12.88-31.67-8.56-6.51-24.78-12.88-48.64-19.32-27.73-7.35-48.19-14.39-61.52-20.98-13.34-6.59-24.02-15.99-31.9-28.19-7.96-12.2-11.9-26.67-11.9-43.41 0-25.92 8.64-46.6 25.91-62.06 17.28-15.45 39.02-23.18 65.09-23.18 24.77 0 47.81 7.96 69.02 23.94v-20.76h37.73v93.65h-37.73v-21.52c-15.91-23.87-37.73-35.76-65.69-35.76-16.89 0-29.85 3.86-38.94 11.67-9.02 7.8-13.56 17.12-13.56 27.96 0 8.33 2.27 15.6 6.89 21.89 4.62 6.37 10.46 10.99 17.58 13.94 7.12 2.96 21.06 7.13 41.97 12.58 27.2 7.12 46.98 13.79 59.33 19.93 12.27 6.13 22.88 16.36 31.82 30.76 8.86 14.32 13.34 30.84 13.34 49.47 0 26.3-9.32 48.04-27.96 65.16-18.64 17.2-41.67 25.76-69.1 25.76-28.19 0-53.57-10.15-76.15-30.38v25.38z"/><path d="m4576.99 1524.96v-231.39h-40v-38.64h126.37v38.64h-38.18v231.39h94.56v-105.01h43.64v143.65h-226.39v-38.64z"/><path d="m5045.23 1524.96v-231.39h-63.19v78.65h-38.64v-117.29h250.48v117.29h-38.64v-78.65h-63.19v231.39h40.01v38.64h-126.38v-38.64z"/><path d="m5416.71 1524.96v-231.39h-41.82v-38.64h119.33c32.96 0 58.34 1.67 76.15 5.08 17.88 3.41 35.16 11.13 51.82 23.11 16.75 11.97 30.08 28.41 40.01 49.4 10 20.91 15 44.77 15 71.52 0 30.46-4.77 56.98-14.39 79.48-9.63 22.43-22.2 39.25-37.81 50.38-15.61 11.07-34.17 18.79-55.69 23.19-21.52 4.32-48.95 6.51-82.21 6.51h-112.21v-38.64zm46.83 0h24.4c27.12 0 48.64-1.66 64.55-5.07s29.24-9.25 40.23-17.43c10.91-8.26 19.78-20.61 26.6-37.2 6.74-16.52 10.15-36.07 10.15-58.57 0-26.74-5.61-49.47-16.75-68.11-11.13-18.64-25.38-30.77-42.73-36.45s-44.02-8.56-80.08-8.56h-26.37z"/></g><path d="m264.87 1438.13 40.16 22.43c-9.02 34.32-27.28 60.92-54.78 79.78-27.43 18.87-59.02 28.26-94.71 28.26-46.82 0-84.4-15.15-112.66-45.53-28.27-30.31-42.43-67.89-42.43-112.59 0-49.02 14.24-88.04 42.65-117.06 28.42-29.02 65.54-43.49 111.3-43.49 40.46 0 74.41 10.99 101.99 33.03v-28.03h40v99.1h-40c-8.87-20.08-22.58-35.68-41.07-46.67-18.56-10.99-38.03-16.52-58.41-16.52-30.84 0-56.15 11.14-75.92 33.34-19.78 22.2-29.63 50.23-29.63 84.18 0 34.85 10.61 63.26 31.75 85.31 21.21 22.05 46.29 33.11 75.31 33.11 23.87 0 45.54-7.65 65.08-23.03 19.55-15.31 33.34-37.2 41.37-65.62z" fill="none" stroke="#2b2a29" stroke-miterlimit="22.9256" stroke-width=".89"/><path d="m519.98 1407.83c0-44.86 14.62-82.36 43.94-112.59 29.25-30.23 67.36-45.31 114.41-45.31 47.43 0 86.15 15.08 116 45.31s44.78 68.04 44.78 113.5c0 46.29-15.15 84.55-45.54 114.71-30.38 30.08-69.02 45.15-115.92 45.15-29.85 0-57.28-7.12-82.36-21.44-25.08-14.24-43.87-34.17-56.44-59.7-12.58-25.54-18.87-52.13-18.87-79.63zm50.91.07c0 33.95 9.93 62.36 29.7 85.32 19.86 22.95 45.84 34.47 78.05 34.47 31.97 0 58.18-11.74 78.72-35.23 20.53-23.49 30.83-51.52 30.83-84.1 0-32.88-10.45-60.69-31.36-83.42-20.92-22.73-47.21-34.1-78.88-34.1-31.44 0-57.2 11.22-77.13 33.57-19.92 22.35-29.93 50.16-29.93 83.49z" fill="none" stroke="#2b2a29" stroke-miterlimit="22.9256" stroke-width=".89"/><path d="m1080.43 1524.96v-231.39h-37.28v-38.64h105.85l81.22 211.69 82.05-211.69h106.83v38.64h-37.27v231.39h37.27v38.64h-116.37v-38.64h36.82v-231.39l-106.45 273.22h-9.1l-105.39-273.22v231.39h34.1v38.64h-109.56v-38.64z" fill="none" stroke="#2b2a29" stroke-miterlimit="22.9256" stroke-width=".89"/><path d="m1648.22 1524.96v-231.39h-38.64v-38.64h110.39c32.36 0 56.68 2.27 72.82 6.9 16.13 4.54 29.62 14.92 40.53 31.13 10.84 16.22 16.29 35.31 16.29 57.28 0 17.66-3.56 33.42-10.76 47.36-7.2 14.02-16.06 24.32-26.67 30.99-10.6 6.59-22.5 11.06-35.76 13.41-13.26 2.27-33.26 3.41-60.08 3.41h-21.29v79.55h40v38.64h-125.47v-38.64zm46.83-116.83h26.67c30.3 0 51.37-4.32 63.03-12.96 11.75-8.63 17.58-23.86 17.58-45.76 0-13.86-3.1-25.38-9.32-34.55-6.21-9.17-13.94-15-23.11-17.5-9.16-2.5-24.47-3.79-45.99-3.79h-28.86z" fill="none" stroke="#2b2a29" stroke-miterlimit="22.9256" stroke-width=".89"/><path d="m2122.45 1293.57v154.49c0 24.02 1.21 40.53 3.63 49.7 2.43 9.25 8.57 17.05 18.34 23.49 9.7 6.44 22.28 9.62 37.66 9.62 18.33 0 32.35-2.8 42.12-8.33 9.78-5.53 16.22-13.03 19.4-22.43 3.18-9.39 4.77-25.99 4.77-49.85v-156.69h-35.91v-38.64h120.92v38.64h-38.64v161.38c0 21.75-.91 37.59-2.8 47.36-1.82 9.85-6.82 20.15-14.93 30.91-8.18 10.68-19.62 19.32-34.47 25.76-14.78 6.44-32.73 9.62-53.95 9.62-23.33 0-42.81-3.03-58.34-9.01-15.53-5.99-27.27-14.02-35.08-24.1-7.88-10-13.11-20.76-15.68-32.12-2.58-11.44-3.87-29.1-3.87-53.11v-156.69h-38.18v-38.64h121.83v38.64z" fill="none" stroke="#2b2a29" stroke-miterlimit="22.9256" stroke-width=".89"/><path d="m2616.98 1524.96v-231.39h-63.19v78.65h-38.64v-117.29h250.48v117.29h-38.64v-78.65h-63.19v231.39h40.01v38.64h-126.38v-38.64z" fill="none" stroke="#2b2a29" stroke-miterlimit="22.9256" stroke-width=".89"/><path d="m2993.01 1524.96v-231.39h-40.01v-38.64h256.85v92.74h-38.64v-54.1h-131.38v91.83h114.56v38.64h-114.56v100.92h131.38v-55.91h38.64v94.55h-256.85v-38.64z" fill="none" stroke="#2b2a29" stroke-miterlimit="22.9256" stroke-width=".89"/><path d="m3443.52 1524.96v-231.39h-42.28v-38.64h125.32c26.21 0 46.97 2.05 62.35 6.14 15.39 4.01 28.11 12.65 38.19 25.76 10.08 13.03 15.08 29.4 15.08 48.94 0 40.84-21.14 66.53-63.49 77.06l54.47 112.13h37.66v38.64h-67.06l-70-144.11h-43.42v105.47h39.55v38.64h-128.65v-38.64zm46.82-144.11h36.3c17.57 0 30.53-1.13 38.86-3.41 8.34-2.34 15.23-6.97 20.54-14.01 5.3-7.05 7.95-16.52 7.95-28.34 0-10.08-2.73-18.56-8.11-25.53s-11.97-11.37-19.92-13.19c-7.88-1.89-19.93-2.8-36.22-2.8h-39.4z" fill="none" stroke="#2b2a29" stroke-miterlimit="22.9256" stroke-width=".89"/><path d="m3855.84 1563.6v-111.83h38.64v27.35c18.56 33.57 42.81 50.39 72.74 50.39 15.3 0 28.18-4.7 38.72-14.02 10.53-9.32 15.83-21.59 15.83-36.75 0-14.69-4.32-25.23-12.88-31.67-8.56-6.51-24.78-12.88-48.64-19.32-27.73-7.35-48.19-14.39-61.52-20.98-13.34-6.59-24.02-15.99-31.9-28.19-7.96-12.2-11.9-26.67-11.9-43.41 0-25.92 8.64-46.6 25.91-62.06 17.28-15.45 39.02-23.18 65.09-23.18 24.77 0 47.81 7.96 69.02 23.94v-20.76h37.73v93.65h-37.73v-21.52c-15.91-23.87-37.73-35.76-65.69-35.76-16.89 0-29.85 3.86-38.94 11.67-9.02 7.8-13.56 17.12-13.56 27.96 0 8.33 2.27 15.6 6.89 21.89 4.62 6.37 10.46 10.99 17.58 13.94 7.12 2.96 21.06 7.13 41.97 12.58 27.2 7.12 46.98 13.79 59.33 19.93 12.27 6.13 22.88 16.36 31.82 30.76 8.86 14.32 13.34 30.84 13.34 49.47 0 26.3-9.32 48.04-27.96 65.16-18.64 17.2-41.67 25.76-69.1 25.76-28.19 0-53.57-10.15-76.15-30.38v25.38z" fill="none" stroke="#2b2a29" stroke-miterlimit="22.9256" stroke-width=".89"/><path d="m4576.99 1524.96v-231.39h-40v-38.64h126.37v38.64h-38.18v231.39h94.56v-105.01h43.64v143.65h-226.39v-38.64z" fill="none" stroke="#2b2a29" stroke-miterlimit="22.9256" stroke-width=".89"/><path d="m5045.23 1524.96v-231.39h-63.19v78.65h-38.64v-117.29h250.48v117.29h-38.64v-78.65h-63.19v231.39h40.01v38.64h-126.38v-38.64z" fill="none" stroke="#2b2a29" stroke-miterlimit="22.9256" stroke-width=".89"/><path d="m5416.71 1524.96v-231.39h-41.82v-38.64h119.33c32.96 0 58.34 1.67 76.15 5.08 17.88 3.41 35.16 11.13 51.82 23.11 16.75 11.97 30.08 28.41 40.01 49.4 10 20.91 15 44.77 15 71.52 0 30.46-4.77 56.98-14.39 79.48-9.63 22.43-22.2 39.25-37.81 50.38-15.61 11.07-34.17 18.79-55.69 23.19-21.52 4.32-48.95 6.51-82.21 6.51h-112.21v-38.64zm46.83 0h24.4c27.12 0 48.64-1.66 64.55-5.07s29.24-9.25 40.23-17.43c10.91-8.26 19.78-20.61 26.6-37.2 6.74-16.52 10.15-36.07 10.15-58.57 0-26.74-5.61-49.47-16.75-68.11-11.13-18.64-25.38-30.77-42.73-36.45s-44.02-8.56-80.08-8.56h-26.37z" fill="none" stroke="#2b2a29" stroke-miterlimit="22.9256" stroke-width=".89"/></svg>