<svg clip-rule="evenodd" fill-rule="evenodd" height="1793" image-rendering="optimizeQuality" shape-rendering="geometricPrecision" text-rendering="geometricPrecision" viewBox="0 0 8530.79 3325.15" width="4600" xmlns="http://www.w3.org/2000/svg"><path d="m6231.91 2089.72h1062.38v102.95h-1062.38z" fill="#00a0e3"/><path d="m7458.57 2089.72h1062.38v102.95h-1062.38z" fill="#e5097f"/><path d="m8520.95 2.19h-858.67v102.96h858.67z"/><path d="m6231.91 105.15h812.8l-62.91-102.96h-749.89z"/><path d="m6231.91 186.19h416.19v1822.48h-416.19v-102.95h262.86v-1616.57h-262.86z"/><path d="m7294.29 1905.72h-411.81v-1322.51l808.19 1322.51h-232.1v102.95h474.72l-1113.73-1822.48h-90.41v1822.48h565.14z"/><path d="m8520.95 2008.67h-416.19v-1822.48h416.19v102.96h-262.86v1616.57h262.86z"/><path d="m7662.28 186.19h361.43v1815.01l-1109.17-1815.01h179.7l776.14 1270.05v-1167.09h-208.1z"/><path d="m3789.53 2192.67h1051.43v-102.95h-1051.43z" fill="#ffed00"/><path d="m5005.24 2089.72h1051.43v102.95h-1051.43z" fill="#009846"/><path d="m4338.24 105.15h1169.72v-102.96h-1169.72z" stroke="#1f1b20" stroke-miterlimit="22.9256" stroke-width="4.38"/><path d="m3789.53 1905.72h185.53l555.69-1616.57h-192.51v-102.96h389.83l-626.48 1822.48h-312.06z" stroke="#1f1b20" stroke-miterlimit="22.9256" stroke-width="4.38"/><path d="m5507.96 186.19h-390.03l626.46 1822.48h312.28v-102.95h-185.51l-555.69-1616.57h192.49z" stroke="#1f1b20" stroke-miterlimit="22.9256" stroke-width="4.38"/><path d="m5005.24 2008.67h653.44l-217.98-634.14h-1035.11l-217.99 634.14h653.36v-102.95h-455.92l147.21-428.24h781.69l147.21 428.24h-455.91z" stroke="#1f1b20" stroke-miterlimit="22.9256" stroke-width="4.38"/><path d="m4433.45 1293.48h979.39l-380.62-1107.29h-218.14zm489.65-953.03 292.2 850.07h-584.41z" stroke="#1f1b20" stroke-miterlimit="22.9256" stroke-width="4.38"/><path d="m1927.62 2.19h972.57v102.96h-972.57z"/><path d="m3614.29 1504.86h-127.05v503.81h127.05z"/><path d="m3614.29 2089.72h-1686.67v102.95h1686.67z" fill="#ef7f1a"/><path d="m1927.62 1905.72h262.86v-1616.57h-262.86v-102.96h416.19v1822.48h-416.19z"/><path d="m2424.86 186.19h475.33v102.96h-322v1616.57h700.95v-400.86h127.05v503.81h-981.33z"/><path d="m0 2008.67h416.19v-1822.48h-416.19v102.96h262.86v1616.57h-262.86z"/><path d="m0 2.19h1752.39v102.96h-1752.39z"/><path d="m1752.39 186.19h-127.05v470.96h127.05z"/><path d="m0 2192.67h1752.39v-102.95h-1752.39z" fill="#e31e24"/><path d="m1752.39 2008.67h-127.05v-503.81h127.05z"/><path d="m1544.29 2008.67h-1047.05v-970.38h722.86v102.95h-569.53v764.48h766.67v-400.86h127.05z"/><path d="m1220.1 957.24h-722.86v-771.05h1047.05v470.96h-127.05v-368h-766.67v565.14h569.53z"/><path d="m559.99 2802.62 39.78 22.61c-21.25 68.56-56.66 120.85-106.23 156.71-49.58 36.01-109.7 53.95-180.37 53.95-90.42 0-163.95-29.08-220.61-87.4-56.66-58.17-84.99-134.11-84.99-227.54 0-96.44 28.79-173.59 86.35-231.75 57.56-58.02 129.29-87.1 214.88-87.1 96.89 0 173.14 35.86 228.59 107.74h1.66v-96.89h39.93v195.29h-41.59c-9.19-50.03-35.87-89.51-80.02-118.44-44.3-28.93-92.82-43.4-145.56-43.4-74.14 0-134.87 25.32-182.33 76.1-47.47 50.63-71.27 115.57-71.27 194.99 0 79.86 24.1 145.56 72.47 196.94 48.22 51.39 109.71 77.16 184.14 77.16 118.44 0 200.11-62.99 245.17-188.97z" fill-rule="nonzero"/><path d="m1115.57 3035.89c-92.22 0-167.56-29.54-226.18-88.61-58.61-59.22-88-135.16-88-228.14 0-91.92 29.08-167.71 87.1-227.53 58.01-59.68 131.7-89.51 221.05-89.51 88.61 0 162.14 29.99 220.31 89.81 58.16 59.82 87.25 135.62 87.25 227.23 0 90.57-28.78 166.06-86.35 226.33-57.56 60.28-129.29 90.42-215.18 90.42zm-6.03-589.49c-74.13 0-135.61 25.77-184.29 77.45-48.82 51.54-73.23 116.64-73.23 195.29 0 78.51 24.41 143.46 73.23 194.99 48.68 51.69 110.16 77.46 184.29 77.46 73.99 0 135.32-25.77 183.99-77.46 48.68-51.53 72.94-116.48 72.94-194.99 0-78.65-24.26-143.75-72.94-195.29-48.67-51.68-110-77.45-183.99-77.45z" fill-rule="nonzero"/><path d="m1605.91 3026.85v-40.69h79.56v-532.53h-79.56v-40.68h158.22l189.26 459.59c7.53 17.03 15.22 38.73 22.75 64.8h1.81c3.77-18.54 9.8-37.82 18.08-57.71l190.47-466.68h158.07v40.68h-75.94v532.53h75.94v40.69h-204.33v-40.69h77.76v-545.18h-1.81l-238.09 585.87h-11.15l-237.18-585.87h-1.81v545.18h74.14v40.69z" fill-rule="nonzero"/><path d="m2501.89 3026.85v-40.69h81.37v-532.53h-81.37v-40.68h265.66c64.19 0 113.92 16.42 149.03 49.12 35.11 32.85 52.74 76.4 52.74 130.8 0 53.19-17.33 96.59-52.14 130.34-34.66 33.61-83.33 50.48-146.01 50.48h-137.28v212.47h82.28v40.69zm132-573.22v279.38h115.73c112.71 0 169.07-45.21 169.07-135.77 0-50.93-13.26-87.55-39.93-110s-67.96-33.61-123.87-33.61z" fill-rule="nonzero"/><path d="m3194.29 2453.63h-78.66v-40.68h207.05v40.68h-77.75v393.9c0 46.56 13.56 82.27 40.83 106.99 27.27 24.71 66 37.07 116.33 37.07 108.04 0 161.99-47.32 161.99-141.8v-396.16h-77.76v-40.68h207.05v40.68h-78.66v394.05c0 62.08-18.99 109.1-57.11 140.74s-87.4 47.47-147.97 47.47c-68.27 0-121.16-15.97-158.83-47.77s-56.51-78.66-56.51-140.44z" fill-rule="nonzero"/><path d="m3973.65 3026.85v-40.69h84.08v-532.53h-177.21v152.8h-41.59v-193.48h488.23v193.48h-41.59v-152.8h-177.21v532.53h84.08v40.69z" fill-rule="nonzero"/><path d="m4481.91 3026.85v-40.69h78.66v-532.53h-78.66v-40.68h491.84v149.18h-41.59v-108.5h-320.96v238.69h254.96v40.69h-254.96v253.15h320.96v-110.3h41.59v150.99z" fill-rule="nonzero"/><path d="m5142.82 3026.85v-40.69h90.42v-532.53h-90.42v-40.68h301.07c51.84 0 92.53 14.01 122.51 42.04 29.84 28.18 44.76 64.34 44.76 108.8 0 83.48-46.72 133.96-140.29 151.59l122.2 270.78h78.66v40.69h-114.07l-138.18-306.5h-135.61v265.81h85.89v40.69zm141.05-347.19h127.32c99.61 0 149.34-38.42 149.34-115.27 0-33.75-11.61-60.73-34.96-80.77-23.21-20.04-55-29.99-95.39-29.99h-146.31z" fill-rule="nonzero"/><path d="m5824.68 3026.85v-210.66h41.59v20.79c0 41.44 17.18 77.6 51.68 108.49 34.36 30.75 75.05 46.12 121.76 46.12 41.89 0 76.55-12.21 104.28-36.77 27.57-24.41 41.44-55.76 41.44-93.73 0-27.42-9.35-51.53-27.88-72.18-18.54-20.64-56.66-38.87-114.37-54.7-57.57-15.97-99.31-29.38-124.92-40.53-25.62-11-47.32-27.73-65.1-50.18-17.78-22.3-26.67-52.14-26.67-89.21 0-43.09 16.87-79.26 50.48-108.34 33.6-29.23 76.4-43.85 128.23-43.85 66.76 0 119.2 23.81 157.62 71.58h1.81v-60.73h41.59v164.55h-41.59v-12.36c0-30.89-16.12-58.46-48.52-82.57-32.25-24.11-69.77-36.17-112.72-36.17-37.52 0-68.56 10.25-93.12 30.89-24.56 20.65-36.77 46.26-36.77 76.85 0 26.22 9.04 49.13 26.97 68.72 18.09 19.58 55.91 37.21 113.62 52.74 57.57 15.52 99.61 28.93 126.13 40.38 26.52 11.3 49.12 28.78 67.81 52.59 18.68 23.66 28.03 55.45 28.03 95.23 0 48.67-18.69 89.51-56.06 122.51s-83.63 49.58-138.93 49.58c-35.87 0-69.47-7.84-100.66-23.66-31.2-15.82-55.3-37.67-72.33-65.7h-1.81v80.32z" fill-rule="nonzero"/><path d="m6742.36 3026.85v-40.69h83.18v-532.53h-83.18v-40.68h216.09v40.68h-82.28v532.53h253.16v-203.43h47.92v244.12z" fill-rule="nonzero"/><path d="m7438.54 3026.85v-40.69h84.08v-532.53h-177.21v152.8h-41.59v-193.48h488.23v193.48h-41.59v-152.8h-177.21v532.53h84.08v40.69z" fill-rule="nonzero"/><path d="m7940.47 3026.85v-40.69h84.99v-532.53h-84.99v-40.68h244.42c132.3 0 222.86 30.74 271.68 92.07 48.98 61.33 73.39 130.94 73.39 208.85 0 62.69-12.51 118.59-37.52 167.71-25.02 49.13-59.37 85.74-103.07 109.55-43.55 23.81-109.85 35.72-198.76 35.72zm135.62-40.69h116.03c108.49 0 183.54-25.16 224.98-75.34 41.43-50.18 62.23-115.28 62.23-195.29 0-72.78-21.25-134.57-63.89-185.5-42.65-50.93-117.69-76.4-225.13-76.4h-114.22z" fill-rule="nonzero"/><g stroke-miterlimit="22.9256"><path d="m559.99 2802.62 39.78 22.61c-21.25 68.56-56.66 120.85-106.23 156.71-49.58 36.01-109.7 53.95-180.37 53.95-90.42 0-163.95-29.08-220.61-87.4-56.66-58.17-84.99-134.11-84.99-227.54 0-96.44 28.79-173.59 86.35-231.75 57.56-58.02 129.29-87.1 214.88-87.1 96.89 0 173.14 35.86 228.59 107.74h1.66v-96.89h39.93v195.29h-41.59c-9.19-50.03-35.87-89.51-80.02-118.44-44.3-28.93-92.82-43.4-145.56-43.4-74.14 0-134.87 25.32-182.33 76.1-47.47 50.63-71.27 115.57-71.27 194.99 0 79.86 24.1 145.56 72.47 196.94 48.22 51.39 109.71 77.16 184.14 77.16 118.44 0 200.11-62.99 245.17-188.97z" fill="none" stroke="#2b2a29" stroke-width="1.67"/><path d="m1115.57 3035.89c-92.22 0-167.56-29.54-226.18-88.61-58.61-59.22-88-135.16-88-228.14 0-91.92 29.08-167.71 87.1-227.53 58.01-59.68 131.7-89.51 221.05-89.51 88.61 0 162.14 29.99 220.31 89.81 58.16 59.82 87.25 135.62 87.25 227.23 0 90.57-28.78 166.06-86.35 226.33-57.56 60.28-129.29 90.42-215.18 90.42zm-6.03-589.49c-74.13 0-135.61 25.77-184.29 77.45-48.82 51.54-73.23 116.64-73.23 195.29 0 78.51 24.41 143.46 73.23 194.99 48.68 51.69 110.16 77.46 184.29 77.46 73.99 0 135.32-25.77 183.99-77.46 48.68-51.53 72.94-116.48 72.94-194.99 0-78.65-24.26-143.75-72.94-195.29-48.67-51.68-110-77.45-183.99-77.45z" fill="none" stroke="#2b2a29" stroke-width="1.67"/><path d="m1605.91 3026.85v-40.69h79.56v-532.53h-79.56v-40.68h158.22l189.26 459.59c7.53 17.03 15.22 38.73 22.75 64.8h1.81c3.77-18.54 9.8-37.82 18.08-57.71l190.47-466.68h158.07v40.68h-75.94v532.53h75.94v40.69h-204.33v-40.69h77.76v-545.18h-1.81l-238.09 585.87h-11.15l-237.18-585.87h-1.81v545.18h74.14v40.69z" fill="none" stroke="#2b2a29" stroke-width="1.67"/><path d="m2501.89 3026.85v-40.69h81.37v-532.53h-81.37v-40.68h265.66c64.19 0 113.92 16.42 149.03 49.12 35.11 32.85 52.74 76.4 52.74 130.8 0 53.19-17.33 96.59-52.14 130.34-34.66 33.61-83.33 50.48-146.01 50.48h-137.28v212.47h82.28v40.69zm132-573.22v279.38h115.73c112.71 0 169.07-45.21 169.07-135.77 0-50.93-13.26-87.55-39.93-110s-67.96-33.61-123.87-33.61z" fill="none" stroke="#2b2a29" stroke-width="1.67"/><path d="m3194.29 2453.63h-78.66v-40.68h207.05v40.68h-77.75v393.9c0 46.56 13.56 82.27 40.83 106.99 27.27 24.71 66 37.07 116.33 37.07 108.04 0 161.99-47.32 161.99-141.8v-396.16h-77.76v-40.68h207.05v40.68h-78.66v394.05c0 62.08-18.99 109.1-57.11 140.74s-87.4 47.47-147.97 47.47c-68.27 0-121.16-15.97-158.83-47.77s-56.51-78.66-56.51-140.44z" fill="none" stroke="#2b2a29" stroke-width="1.67"/><path d="m3973.65 3026.85v-40.69h84.08v-532.53h-177.21v152.8h-41.59v-193.48h488.23v193.48h-41.59v-152.8h-177.21v532.53h84.08v40.69z" fill="none" stroke="#2b2a29" stroke-width="1.67"/><path d="m4481.91 3026.85v-40.69h78.66v-532.53h-78.66v-40.68h491.84v149.18h-41.59v-108.5h-320.96v238.69h254.96v40.69h-254.96v253.15h320.96v-110.3h41.59v150.99z" fill="none" stroke="#2b2a29" stroke-width="1.67"/><path d="m5142.82 3026.85v-40.69h90.42v-532.53h-90.42v-40.68h301.07c51.84 0 92.53 14.01 122.51 42.04 29.84 28.18 44.76 64.34 44.76 108.8 0 83.48-46.72 133.96-140.29 151.59l122.2 270.78h78.66v40.69h-114.07l-138.18-306.5h-135.61v265.81h85.89v40.69zm141.05-347.19h127.32c99.61 0 149.34-38.42 149.34-115.27 0-33.75-11.61-60.73-34.96-80.77-23.21-20.04-55-29.99-95.39-29.99h-146.31z" fill="none" stroke="#2b2a29" stroke-width="1.67"/><path d="m5824.68 3026.85v-210.66h41.59v20.79c0 41.44 17.18 77.6 51.68 108.49 34.36 30.75 75.05 46.12 121.76 46.12 41.89 0 76.55-12.21 104.28-36.77 27.57-24.41 41.44-55.76 41.44-93.73 0-27.42-9.35-51.53-27.88-72.18-18.54-20.64-56.66-38.87-114.37-54.7-57.57-15.97-99.31-29.38-124.92-40.53-25.62-11-47.32-27.73-65.1-50.18-17.78-22.3-26.67-52.14-26.67-89.21 0-43.09 16.87-79.26 50.48-108.34 33.6-29.23 76.4-43.85 128.23-43.85 66.76 0 119.2 23.81 157.62 71.58h1.81v-60.73h41.59v164.55h-41.59v-12.36c0-30.89-16.12-58.46-48.52-82.57-32.25-24.11-69.77-36.17-112.72-36.17-37.52 0-68.56 10.25-93.12 30.89-24.56 20.65-36.77 46.26-36.77 76.85 0 26.22 9.04 49.13 26.97 68.72 18.09 19.58 55.91 37.21 113.62 52.74 57.57 15.52 99.61 28.93 126.13 40.38 26.52 11.3 49.12 28.78 67.81 52.59 18.68 23.66 28.03 55.45 28.03 95.23 0 48.67-18.69 89.51-56.06 122.51s-83.63 49.58-138.93 49.58c-35.87 0-69.47-7.84-100.66-23.66-31.2-15.82-55.3-37.67-72.33-65.7h-1.81v80.32z" fill="none" stroke="#2b2a29" stroke-width="1.67"/><path d="m6742.36 3026.85v-40.69h83.18v-532.53h-83.18v-40.68h216.09v40.68h-82.28v532.53h253.16v-203.43h47.92v244.12z" fill="none" stroke="#2b2a29" stroke-width="1.67"/><path d="m7438.54 3026.85v-40.69h84.08v-532.53h-177.21v152.8h-41.59v-193.48h488.23v193.48h-41.59v-152.8h-177.21v532.53h84.08v40.69z" fill="none" stroke="#2b2a29" stroke-width="1.67"/><path d="m7940.47 3026.85v-40.69h84.99v-532.53h-84.99v-40.68h244.42c132.3 0 222.86 30.74 271.68 92.07 48.98 61.33 73.39 130.94 73.39 208.85 0 62.69-12.51 118.59-37.52 167.71-25.02 49.13-59.37 85.74-103.07 109.55-43.55 23.81-109.85 35.72-198.76 35.72zm135.62-40.69h116.03c108.49 0 183.54-25.16 224.98-75.34 41.43-50.18 62.23-115.28 62.23-195.29 0-72.78-21.25-134.57-63.89-185.5-42.65-50.93-117.69-76.4-225.13-76.4h-114.22z" fill="none" stroke="#2b2a29" stroke-width="1.67"/></g><path d="m0 3246.29h8520.95v78.86h-8520.95z"/></svg>